<svg width="687" height="161" viewBox="0 0 687 161" fill="none" xmlns="http://www.w3.org/2000/svg">
<path d="M43.324 119V41.3H103.042V55.286H60.196V75.488H94.495V89.474H60.196V119H43.324ZM113.419 119V41.3H129.181V119H113.419ZM140.755 91.25C140.755 82.518 143.493 75.451 148.969 70.049C154.445 64.573 161.438 61.835 169.948 61.835C178.532 61.835 185.525 64.573 190.927 70.049C196.403 75.451 199.141 82.518 199.141 91.25C199.141 100.13 196.44 107.271 191.038 112.673C185.636 118.075 178.606 120.776 169.948 120.776C161.586 120.776 154.63 118.001 149.08 112.451C143.53 106.827 140.755 99.76 140.755 91.25ZM179.272 104.015C181.566 101.129 182.713 96.948 182.713 91.472C182.713 85.996 181.566 81.778 179.272 78.818C177.052 75.784 173.944 74.267 169.948 74.267C165.952 74.267 162.807 75.784 160.513 78.818C158.293 81.778 157.183 85.996 157.183 91.472C157.183 96.948 158.293 101.129 160.513 104.015C162.807 106.827 165.952 108.233 169.948 108.233C173.944 108.233 177.052 106.827 179.272 104.015ZM221.974 119L204.214 63.5H220.42L224.527 79.928C225.489 83.554 226.155 86.736 226.525 89.474C227.043 92.286 227.339 94.876 227.413 97.244C227.561 99.242 227.709 102.979 227.857 108.455H233.74C233.888 101.203 234.073 96.319 234.295 93.803C234.591 90.473 235.257 86.847 236.293 82.925L241.399 63.5H260.158L265.264 82.814C266.226 86.662 266.892 90.399 267.262 94.025C267.706 98.391 267.965 103.201 268.039 108.455H273.811L274.144 97.133C274.588 91.361 275.735 84.997 277.585 78.041L281.359 63.5H297.454L279.694 119H260.713L256.051 101.129C254.867 96.467 254.127 92.471 253.831 89.141C253.609 86.477 253.424 81.667 253.276 74.711C253.202 74.489 253.165 73.934 253.165 73.046H247.06C247.06 74.304 247.023 76.228 246.949 78.818C246.949 81.334 246.912 83.073 246.838 84.035C246.69 89.659 245.876 95.283 244.396 100.907L239.623 119H221.974ZM301.706 104.681L316.025 100.13C316.469 102.128 317.542 104.2 319.244 106.346C320.872 108.418 324.017 109.454 328.679 109.454C331.269 109.454 333.304 108.936 334.784 107.9C336.338 106.864 337.115 105.532 337.115 103.904C337.115 102.35 336.597 101.129 335.561 100.241C334.525 99.279 332.749 98.539 330.233 98.021L322.352 96.467C315.914 95.209 311.215 93.322 308.255 90.806C305.369 88.29 303.926 84.479 303.926 79.373C303.926 74.045 306.072 69.79 310.364 66.608C314.656 63.426 320.465 61.835 327.791 61.835C333.859 61.835 338.891 63.093 342.887 65.609C346.957 68.125 349.732 71.122 351.212 74.6L338.225 80.483C336.301 75.303 332.564 72.713 327.014 72.713C324.498 72.713 322.537 73.194 321.131 74.156C319.799 75.118 319.133 76.413 319.133 78.041C319.133 79.595 319.651 80.779 320.687 81.593C321.797 82.333 323.832 82.962 326.792 83.48L334.451 84.923C347.179 87.365 353.543 93.137 353.543 102.239C353.543 107.863 351.249 112.34 346.661 115.67C342.073 118.926 335.783 120.554 327.791 120.554C321.205 120.554 315.47 119.111 310.586 116.225C305.776 113.339 302.816 109.491 301.706 104.681ZM364.686 140.645V63.5H379.005C379.005 66.46 377.451 70.234 374.343 74.822H381.003C383.223 70.53 385.591 67.311 388.107 65.165C390.697 63.019 394.545 61.872 399.651 61.724C406.385 61.724 411.861 64.462 416.079 69.938C420.371 75.414 422.517 82.518 422.517 91.25C422.517 99.982 420.371 107.086 416.079 112.562C411.861 117.964 406.385 120.665 399.651 120.665C391.067 120.665 384.925 116.299 381.225 107.567H374.565C375.971 109.861 377.007 111.748 377.673 113.228C378.339 114.634 378.968 116.817 379.56 119.777C380.152 122.737 380.448 126.252 380.448 130.322V140.645H364.686ZM392.991 108.788C401.649 108.788 405.978 102.942 405.978 91.25C405.978 79.558 401.649 73.712 392.991 73.712C388.921 73.712 385.702 75.229 383.334 78.263C380.966 81.297 379.782 85.626 379.782 91.25C379.782 96.948 380.929 101.314 383.223 104.348C385.591 107.308 388.847 108.788 392.991 108.788ZM431.059 104.792C431.133 101.166 432.021 98.021 433.723 95.357C435.425 92.693 437.867 90.547 441.049 88.919C444.305 87.291 447.894 86.033 451.816 85.145C455.812 84.183 460.511 83.443 465.913 82.925V80.816C465.913 75.71 462.879 73.157 456.811 73.157C450.077 73.157 446.007 76.08 444.601 81.926L430.393 78.818C430.837 74.156 433.427 70.16 438.163 66.83C442.973 63.5 449.152 61.835 456.7 61.835C464.692 61.835 470.797 63.648 475.015 67.274C479.307 70.9 481.453 76.265 481.453 83.369V103.682C481.453 105.162 481.638 106.087 482.008 106.457C482.378 106.827 483.303 107.012 484.783 107.012H489.667V119H483.118C478.382 119 475.2 118.186 473.572 116.558C472.018 114.856 471.167 111.822 471.019 107.456H465.802C462.99 116.336 457.329 120.776 448.819 120.776C443.713 120.776 439.458 119.296 436.054 116.336C432.724 113.376 431.059 109.528 431.059 104.792ZM465.913 96.245V92.693C459.549 93.507 454.813 94.654 451.705 96.134C448.597 97.614 447.043 99.982 447.043 103.238C447.043 107.234 449.448 109.232 454.258 109.232C457.588 109.232 460.363 108.122 462.583 105.902C464.803 103.682 465.913 100.463 465.913 96.245ZM494.242 91.139C494.242 82.481 497.091 75.451 502.789 70.049C508.487 64.573 515.591 61.835 524.101 61.835C530.465 61.835 535.978 63.352 540.64 66.386C545.302 69.42 548.595 73.453 550.519 78.485L535.978 83.924C533.684 77.486 529.54 74.267 523.546 74.267C519.624 74.267 516.405 75.747 513.889 78.707C511.373 81.667 510.115 85.811 510.115 91.139C510.115 96.467 511.373 100.648 513.889 103.682C516.479 106.716 519.735 108.233 523.657 108.233C529.725 108.233 534.017 104.718 536.533 97.688L551.407 103.016C549.261 108.418 545.746 112.747 540.862 116.003C535.978 119.185 530.354 120.776 523.99 120.776C515.332 120.776 508.191 118.038 502.567 112.562C497.017 107.086 494.242 99.945 494.242 91.139ZM557.658 91.139C557.658 82.629 560.322 75.636 565.65 70.16C570.978 64.61 577.675 61.835 585.741 61.835C594.103 61.835 600.689 64.573 605.499 70.049C610.309 75.525 612.714 82.592 612.714 91.25C612.714 92.952 612.677 94.21 612.603 95.024H573.42C573.642 99.538 574.863 102.979 577.083 105.347C579.303 107.641 582.226 108.788 585.852 108.788C591.624 108.788 595.916 105.569 598.728 99.131L612.825 104.57C610.901 109.01 607.793 112.858 603.501 116.114C599.283 119.222 593.4 120.776 585.852 120.776C577.342 120.776 570.497 118.112 565.317 112.784C560.211 107.382 557.658 100.167 557.658 91.139ZM573.975 83.924H597.063C596.249 76.746 592.475 73.157 585.741 73.157C582.559 73.157 579.932 74.082 577.86 75.932C575.788 77.782 574.493 80.446 573.975 83.924Z" fill="white"/>
<path d="M630.576 119V101.462H648.891V119H630.576Z" fill="#5057FF"/>
</svg>
